<svg width="92" height="33" viewBox="0 0 92 33" fill="none" xmlns="http://www.w3.org/2000/svg">
<g clip-path="url(#clip0_42_309)">
<path d="M26.0552 26.6055C26.5689 26.6055 26.9942 26.7794 27.3353 27.1231C27.6848 27.4668 27.8532 27.8954 27.8532 28.4046C27.8532 28.9138 27.6848 29.3338 27.3353 29.686C26.9942 30.0297 26.5689 30.2037 26.0552 30.2037H24.9477V32.0792H24.0551V26.6097H26.0552V26.6055ZM26.0552 29.355C26.5816 29.355 26.9605 28.9562 26.9605 28.4003C26.9605 27.8445 26.5816 27.4456 26.0552 27.4456H24.9477V29.3508H26.0552V29.355Z" fill="#103559"/>
<path d="M29.1967 30.5131C29.3258 31.0612 29.8289 31.3626 30.51 31.3626C30.9774 31.3626 31.3291 31.21 31.5695 30.9163L32.2995 31.2922C31.8989 31.8167 31.2979 32.079 30.5055 32.079C29.8422 32.079 29.2991 31.8989 28.8896 31.5466C28.48 31.1865 28.2752 30.7324 28.2752 30.1843C28.2752 29.6362 28.48 29.1978 28.8807 28.8376C29.2813 28.4696 29.8066 28.2896 30.4387 28.2896C31.0353 28.2896 31.5294 28.4775 31.9123 28.8454C32.2995 29.2134 32.4954 29.6675 32.4954 30.1921C32.4954 30.2704 32.4865 30.38 32.4643 30.517H29.2012L29.1967 30.5131ZM31.6006 29.8789C31.476 29.2956 31.0086 28.9903 30.4298 28.9903C29.7755 28.9903 29.3169 29.3309 29.1923 29.8789H31.6006Z" fill="#103559"/>
<path d="M35.0275 28.9369H34.0589V30.8177C34.0589 31.3198 34.386 31.3113 35.0275 31.2815V32.0432C33.736 32.2006 33.2134 31.8474 33.2134 30.8219V28.9412H32.4954V28.1242H33.2134V27.2774L34.0589 27.0264V28.1242H35.0275V28.9412V28.9369Z" fill="#103559"/>
<path d="M37.1093 29.8453C37.68 29.9668 38.4195 30.198 38.4034 30.97C38.4034 31.3149 38.2628 31.5892 37.9895 31.7851C37.7162 31.9811 37.3746 32.079 36.9606 32.079C36.2292 32.079 35.6867 31.7616 35.4496 31.2365L36.1368 30.8485C36.2614 31.1934 36.5346 31.3697 36.9566 31.3697C37.3786 31.3697 37.5876 31.2326 37.5876 30.9661C37.5876 30.7349 37.2781 30.5977 36.8843 30.5037C36.3297 30.3665 35.5822 30.151 35.5983 29.3907C35.5983 29.0576 35.7228 28.7912 35.9841 28.5913C36.2413 28.3875 36.5708 28.2896 36.9526 28.2896C37.5675 28.2896 38.0618 28.5717 38.323 29.042L37.6479 29.4103C37.5233 29.136 37.2862 28.9989 36.9526 28.9989C36.6512 28.9989 36.4141 29.1282 36.4141 29.3829C36.4141 29.6219 36.7235 29.7434 37.1093 29.8531V29.8453Z" fill="#103559"/>
<path d="M43.4679 27.4103C42.803 27.3562 42.4796 27.6103 42.4796 28.1683V28.2433H43.4679V29.043H42.4796V32.0792H41.5734V29.043H40.9358V28.2433H41.5734V28.1683C41.5734 27.1188 42.2292 26.544 43.4679 26.6107V27.4103Z" fill="#103559"/>
<path d="M44.5065 31.531C44.0983 31.163 43.8899 30.7167 43.8899 30.1843C43.8899 29.6519 44.0983 29.2056 44.5065 28.8376C44.9146 28.4696 45.4182 28.2896 46 28.2896C46.5818 28.2896 47.0855 28.4696 47.4936 28.8376C47.9017 29.2056 48.1101 29.6519 48.1101 30.1843C48.1101 30.7167 47.9017 31.163 47.4936 31.531C47.0855 31.8989 46.5905 32.079 46 32.079C45.4095 32.079 44.9146 31.8989 44.5065 31.531ZM46 31.3235C46.3517 31.3235 46.6469 31.2139 46.8857 30.9986C47.1245 30.7832 47.2461 30.5092 47.2461 30.1843C47.2461 29.8594 47.1245 29.5853 46.8857 29.37C46.6469 29.1547 46.3517 29.0451 46 29.0451C45.6483 29.0451 45.3531 29.1547 45.1143 29.37C44.8755 29.5853 44.7539 29.8594 44.7539 30.1843C44.7539 30.5092 44.8755 30.7832 45.1143 30.9986C45.3531 31.2139 45.6483 31.3235 46 31.3235Z" fill="#103559"/>
<path d="M49.4015 28.9811C49.6199 28.5201 50.0393 28.2896 50.6422 28.2896V29.1591C50.3145 29.1348 50.0218 29.2116 49.7728 29.3815C49.5238 29.5473 49.4015 29.8223 49.4015 30.2025V32.079H48.5321V28.3543H49.4015V28.9811Z" fill="#103559"/>
<path d="M56.9725 30.5165C56.9725 30.9623 56.8228 31.336 56.5195 31.6333C56.2161 31.9305 55.848 32.0792 55.4111 32.0792H53.1743V26.6055H55.2453C55.67 26.6055 56.0341 26.7541 56.3253 27.0429C56.6246 27.3316 56.7702 27.6926 56.7702 28.1215C56.7702 28.5971 56.5923 28.9665 56.2404 29.2383C56.6934 29.4888 56.9684 29.9432 56.9684 30.5122L56.9725 30.5165ZM54.0318 27.4505V28.8901H55.2453C55.6255 28.8901 55.9168 28.5758 55.9168 28.1724C55.9168 27.769 55.6255 27.4548 55.2453 27.4548H54.0318V27.4505ZM55.4111 31.2341C55.8075 31.2341 56.119 30.8986 56.119 30.4697C56.119 30.0409 55.8075 29.7054 55.4111 29.7054H54.0318V31.2384H55.4111V31.2341Z" fill="#103559"/>
<path d="M58.7371 30.5131C58.866 31.0612 59.3685 31.3626 60.0489 31.3626C60.5158 31.3626 60.8672 31.21 61.1073 30.9163L61.8366 31.2922C61.4364 31.8167 60.836 32.079 60.0445 32.079C59.3819 32.079 58.8393 31.8989 58.4302 31.5466C58.0211 31.1865 57.8165 30.7324 57.8165 30.1843C57.8165 29.6362 58.0211 29.1978 58.4213 28.8376C58.8215 28.4696 59.3463 28.2896 59.9778 28.2896C60.5737 28.2896 61.0673 28.4775 61.4542 28.8454C61.841 29.2134 62.0367 29.6675 62.0367 30.1921C62.0367 30.2704 62.0278 30.38 62.0056 30.517H58.7459L58.7371 30.5131ZM61.1384 29.8789C61.0139 29.2956 60.547 28.9903 59.9689 28.9903C59.3152 28.9903 58.8571 29.3309 58.7326 29.8789H61.1429H61.1384Z" fill="#103559"/>
<path d="M63.6965 29.8453C64.2672 29.9668 65.0067 30.198 64.9906 30.97C64.9906 31.3149 64.8499 31.5892 64.5766 31.7851C64.3034 31.9811 63.9618 32.079 63.5478 32.079C62.8164 32.079 62.2738 31.7616 62.0367 31.2365L62.7239 30.8485C62.8485 31.1934 63.1218 31.3697 63.5438 31.3697C63.9658 31.3697 64.1748 31.2326 64.1748 30.9661C64.1748 30.7349 63.8653 30.5977 63.4714 30.5037C62.9168 30.3665 62.1693 30.151 62.1854 29.3907C62.1854 29.0576 62.31 28.7912 62.5712 28.5913C62.8284 28.3875 63.158 28.2896 63.5398 28.2896C64.1547 28.2896 64.649 28.5717 64.9102 29.042L64.235 29.4103C64.1105 29.136 63.8733 28.9989 63.5398 28.9989C63.2384 28.9989 63.0012 29.1282 63.0012 29.3829C63.0012 29.6219 63.3107 29.7434 63.6965 29.8531V29.8453Z" fill="#103559"/>
<path d="M67.945 28.9369H66.9779V30.8177C66.9779 31.3198 67.3045 31.3113 67.945 31.2815V32.0432C66.6556 32.2006 66.1339 31.8474 66.1339 30.8219V28.9412H65.4128V28.1242H66.1339V27.2774L66.9779 27.0264V28.1242H67.945V28.9412V28.9369Z" fill="#103559"/>
<path d="M19.9909 3.07168C19.8804 1.98267 19.4429 1.76318 18.5933 1.76318H14.974C14.1797 1.76318 13.9885 1.89825 13.6869 2.77199L10.9725 11.598L8.25804 2.77199C7.95644 1.89825 7.76528 1.76318 6.97092 1.76318H3.34742C2.49783 1.76318 2.06029 1.98267 1.94985 3.07168L0.0297779 20.3987C-0.050933 21.0234 0.00429027 21.2724 0.552275 21.3526L4.69402 21.952C5.32271 22.0322 5.4629 21.8971 5.54361 21.4328L6.44842 13.3159L8.39398 20.9179C8.58513 21.5426 8.83151 21.7916 9.46446 21.7916H12.4805C13.1092 21.7916 13.3598 21.5468 13.551 20.9179L15.471 13.3159L16.4013 21.4328C16.4821 21.8971 16.6222 22.0322 17.2509 21.952L21.3927 21.3526C21.9407 21.2724 21.9959 21.0276 21.9152 20.3987L19.9909 3.07168Z" fill="#103559"/>
<path d="M29.9633 6.39453C25.3152 6.39453 22.789 9.58043 22.789 13.9735C22.789 18.3665 25.3152 21.5524 29.9633 21.5524C34.6114 21.5524 37.1376 18.3665 37.1376 13.9735C37.1376 9.58043 34.6114 6.39453 29.9633 6.39453ZM29.9633 16.5952C28.8476 16.5952 28.2497 15.5498 28.2497 13.9693C28.2497 12.3888 28.8476 11.3435 29.9633 11.3435C31.079 11.3435 31.6769 12.3888 31.6769 13.9693C31.6769 15.5498 31.079 16.5952 29.9633 16.5952Z" fill="#103559"/>
<path d="M47.5615 6.40295C46.6086 6.40295 39.4792 6.59226 39.0154 7.24435C38.8257 7.46311 38.8257 7.76181 38.8257 8.27507L39.0449 20.1136C39.0702 21.199 39.319 21.5524 40.2676 21.5524H43.5899C44.5427 21.5524 44.8126 21.199 44.8126 20.1136V11.9394C45.2215 11.8048 45.3564 11.7501 45.8202 11.7206C46.4442 11.6954 46.7435 11.8847 46.9375 12.3979C47.0724 12.9407 47.1019 13.7568 47.1019 14.8675L47.0766 20.1094C47.0766 21.1948 47.376 21.5482 48.3288 21.5482H51.7312C52.6841 21.5482 52.9286 21.1948 52.9539 20.1094L53.1731 12.886C53.1984 11.119 52.819 9.4909 51.9209 8.2961C50.9681 7.10131 49.5515 6.39453 47.5657 6.39453L47.5615 6.40295Z" fill="#103559"/>
<path d="M60.3312 8.0791H56.9113C55.9755 8.0791 55.7064 8.4018 55.7064 9.48724V20.1195C55.7064 21.2008 55.9755 21.5528 56.9113 21.5528H60.385C61.3207 21.5528 61.6147 21.2008 61.6147 20.1195L61.5609 9.48724C61.5609 8.43114 61.2669 8.0791 60.3312 8.0791Z" fill="#103559"/>
<path d="M58.8716 0.920898C56.846 0.920898 55.7064 2.16818 55.7064 3.86827C55.7064 5.56836 56.846 6.81564 58.8716 6.81564C60.8971 6.81564 62.0367 5.56836 62.0367 3.86827C62.0367 2.16818 60.8971 0.920898 58.8716 0.920898Z" fill="#103559"/>
<path d="M73.5576 6.83578H71.4539V3.17527C71.4539 2.09099 71.1754 1.76318 70.2114 1.76318H66.9467C65.9784 1.76318 65.6742 2.11621 65.6742 3.17527V6.83578H64.0161C63.1035 6.83578 62.8807 6.99968 62.8807 7.84021V10.7989C62.8807 11.6394 63.1035 11.8033 64.0161 11.8033H65.6742V16.9558C65.6742 20.4271 67.5251 21.9737 71.0126 21.9737C72.0366 21.9737 73.0606 21.8939 74.0289 21.7005C74.4445 21.6207 74.5559 21.5114 74.5559 21.1038L74.4188 16.9515C74.4188 16.5985 74.226 16.464 73.8661 16.5439C73.5619 16.6237 73.2577 16.6784 72.8421 16.6784C72.0409 16.6784 71.4582 16.4052 71.4582 15.2411V11.7949H73.5619C74.4745 11.7949 74.6973 11.631 74.6973 10.7905V7.83181C74.6973 6.99128 74.4745 6.82737 73.5619 6.82737L73.5576 6.83578Z" fill="#103559"/>
<path d="M82.7156 6.39453C78.0675 6.39453 75.5413 9.58043 75.5413 13.9735C75.5413 18.3665 78.0675 21.5524 82.7156 21.5524C87.3637 21.5524 89.8899 18.3665 89.8899 13.9735C89.8899 9.58043 87.3637 6.39453 82.7156 6.39453ZM82.7156 16.5952C81.5999 16.5952 81.002 15.5498 81.002 13.9693C81.002 12.3888 81.5999 11.3435 82.7156 11.3435C83.8313 11.3435 84.4292 12.3888 84.4292 13.9693C84.4292 15.5498 83.8313 16.5952 82.7156 16.5952Z" fill="#103559"/>
<path d="M91.2241 6.98849C90.7365 6.63669 89.9378 6.83995 89.4333 7.44192C88.9289 8.0439 88.9163 8.81786 89.3997 9.16966C89.8873 9.52146 90.6861 9.3182 91.1905 8.71623C91.695 8.11426 91.7076 7.34029 91.2241 6.98849Z" fill="#103559"/>
<path d="M79.7481 5.96499C80.3213 5.87697 80.6969 5.15184 80.5862 4.34287C80.4755 3.5339 79.926 2.94709 79.3528 3.03511C78.7796 3.12313 78.4041 3.84827 78.5148 4.65723C78.6255 5.4662 79.1749 6.05302 79.7481 5.96499Z" fill="#103559"/>
<path d="M87.1751 6.70877C87.9681 7.10908 89.1686 6.35197 89.8521 5.01615C90.5356 3.68033 90.4479 2.27054 89.6506 1.87023C88.8575 1.46992 87.6571 2.22703 86.9736 3.56285C86.2901 4.89867 86.3778 6.30846 87.1751 6.70877Z" fill="#103559"/>
<path d="M83.0697 5.5458C83.8689 5.64752 84.6444 4.60073 84.7987 3.21067C84.953 1.81637 84.4307 0.608539 83.6276 0.506827C82.8283 0.405115 82.0529 1.4519 81.8986 2.84196C81.7443 4.23626 82.2665 5.44409 83.0697 5.5458Z" fill="#103559"/>
</g>
<defs>
<clipPath id="clip0_42_309">
<rect width="92" height="32" fill="white" transform="translate(0 0.5)"/>
</clipPath>
</defs>
</svg>
